<?xml version="1.0" encoding="UTF-8"?>
<!-- Generator: Adobe Illustrator 25.2.1, SVG Export Plug-In . SVG Version: 6.00 Build 0)  -->
<svg version="1.1" id="Layer_1" xmlns="http://www.w3.org/2000/svg" xmlns:xlink="http://www.w3.org/1999/xlink" x="0px" y="0px" viewBox="0 0 132.8 146.2" style="enable-background:new 0 0 132.8 146.2;" xml:space="preserve">
<g>
	<g>
		<path fill="#FFFFFF" d="M11.5,118L55.1,143.1c7.1,4.1,15.8,4.1,22.8,0l11.4-6.6V107.2v-6.7V73c0-8.1-4.3-15.7-11.4-19.8c-3.5-2-7.5-3.1-11.4-3.1    s-7.9,1-11.4,3.1l0,0c-7.1,4.1-11.4,11.6-11.4,19.8c0,8.1,4.3,15.7,11.4,19.8l0,0c3.5,2,7.5,3.1,11.4,3.1V110.2c-3.9,0-7.9-1-11.4-3.1    L43.7,99.9c-7.1-4.1-11.4-11.6-11.4-19.8V65.8c0-8.1,4.3-15.7,11.4-19.8l12.4-7.2c3.5-2,7.5-3.1,11.4-3.1s7.9,1,11.4,3.1    l12.4,7.2c7.1,4.1,11.4,11.6,11.4,19.8v7.2V80.2V98.7v30.7l18.8-11.4c7.1-4.1,11.4-11.6,11.4-19.8V48c0-8.1-4.3-15.7-11.4-19.8    L77.8,3c-7.1-4.1-15.8-4.1-22.8,0L11.5,28.1C4.4,32.2,0.1,39.7,0.1,47.9v50.3C0.1,106.4,4.4,113.9,11.5,118z M80.5,91c1.3-1,2.4-2.1,3.4-3.3v16l-3.4,2V91z M71.8,95.2c1.2-0.3,2.3-0.6,3.4-1.1v14.4c-1.1,0.5-2.3,0.8-3.4,1.1V95.2z"/>
	</g>
</g>
</svg>