<?xml version="1.0" encoding="UTF-8" standalone="no"?>
<svg width="200" height="200" viewBox="0 0 200 200" xmlns="http://www.w3.org/2000/svg">
  <!-- Q Character -->
  <path d="M100,40
          C68,40 45,63 45,95
          C45,127 68,150 100,150
          C132,150 155,127 155,95
          C155,63 132,40 100,40
          Z
          M100,60
          C124,60 140,76 140,95
          C140,114 124,130 100,130
          C76,130 60,114 60,95
          C60,76 76,60 100,60
          Z" 
        fill="#2e7d32" />
  
  <!-- Q Tail Base -->
  <path d="M120,125 L150,155" 
        stroke="#2e7d32" 
        stroke-width="15" 
        stroke-linecap="round" />
  
  <!-- Leaf -->
  <path d="M150,155
          C175,130 185,155 170,110
          C160,75 145,70 140,70
          C130,90 130,130 150,155
          Z" 
        fill="#4caf50" />
  
  <!-- Simple Leaf Vein -->
  <path d="M150,155
          C145,125 145,100 145,80" 
        fill="none" 
        stroke="#ffffff" 
        stroke-width="2.5" 
        stroke-linecap="round" />
</svg>